<svg xmlns="http://www.w3.org/2000/svg" version="1.1" xmlns:xlink="http://www.w3.org/1999/xlink" width="1000" height="1000"><g clip-path="url(#SvgjsClipPath1016)"><rect width="1000" height="1000" fill="#ffffff"></rect><g transform="matrix(9.45945945945946,0,0,9.45945945945946,150,150)"><svg xmlns="http://www.w3.org/2000/svg" version="1.1" xmlns:xlink="http://www.w3.org/1999/xlink" width="74" height="74"><svg width="74" height="74" viewBox="0 0 74 74" fill="none" xmlns="http://www.w3.org/2000/svg">
<path d="M63.1579 36.8421C63.1579 22.3083 51.3759 10.5263 36.8421 10.5263C22.3083 10.5263 10.5263 22.3083 10.5263 36.8421C10.5263 51.3759 22.3083 63.1579 36.8421 63.1579C51.3759 63.1579 63.1579 51.3759 63.1579 36.8421ZM73.6842 36.8421C73.6842 57.1894 57.1894 73.6842 36.8421 73.6842C16.4948 73.6842 0 57.1894 0 36.8421C0 16.4948 16.4948 0 36.8421 0C57.1894 0 73.6842 16.4948 73.6842 36.8421Z" fill="#6C6C6C"></path>
</svg></svg></g></g><defs><clipPath id="SvgjsClipPath1016"><rect width="1000" height="1000" x="0" y="0" rx="350" ry="350"></rect></clipPath></defs></svg>