<svg fill="none" height="68" viewBox="0 0 200 68" width="200" xmlns="http://www.w3.org/2000/svg"><g fill="#111111"><path d="m57.1429 34.4032c0-13.1497-10.6599-23.8096-23.8096-23.8096-13.1496 0-23.80949 10.6599-23.80949 23.8096 0 13.1496 10.65989 23.8095 23.80949 23.8095 13.1497 0 23.8096-10.6599 23.8096-23.8095zm9.5238 0c0 18.4094-14.9239 33.3333-33.3334 33.3333s-33.3333-14.9239-33.3333-33.3333c0-18.4095 14.9238-33.33338 33.3333-33.33338s33.3334 14.92388 33.3334 33.33338z"/><path d="m100.666 62.2603-14.7895-55.19581c-.6807-2.54031.8269-5.15144 3.3672-5.83212 2.5403-.680673 5.1514.82686 5.8321 3.36718l14.7892 55.19575c.681 2.5403-.826 5.1515-3.367 5.8321-2.54.6807-5.151-.8268-5.832-3.3671z"/><path d="m133.333 12.9746c0-6.57483 5.33-11.90478 11.905-11.90478h42.857c6.575 0 11.905 5.32995 11.905 11.90478v42.8571c0 6.5748-5.33 11.9048-11.905 11.9048h-42.857c-6.575 0-11.905-5.33-11.905-11.9048z"/></g></svg>
